<svg width="486" height="525" viewBox="0 0 486 525" fill="none" xmlns="http://www.w3.org/2000/svg">
    <path fill-rule="evenodd" clip-rule="evenodd" d="M286.5 2.57097C298.892 5.52397 308.225 10.703 317.163 19.588C330.468 32.813 335.84 47.246 337.974 75.5C340.288 106.151 343.844 117.203 358.605 139.639C375.613 165.488 399.029 181.728 437 194.006C444.456 196.417 456.84 203.651 463.013 209.202C473.135 218.302 481.418 232.97 484.082 246.511C486.015 256.334 484.83 273.53 481.582 282.792C477.715 293.821 471.588 303.916 464.654 310.679C457.955 317.214 443.879 324.723 426.5 331.033C380.023 347.909 357.246 370.629 342.477 414.842C338.808 425.827 338.116 430.352 336.031 457C335.471 464.15 334.34 472.192 333.518 474.872C329.331 488.511 319.231 503.503 309.372 510.713C302.026 516.086 298.027 518.088 288.858 520.987C258.736 530.509 222.836 519.028 206.039 494.5C196.459 480.512 193.903 468.582 195.917 447.26C198.609 418.767 208.926 403.17 232.409 392.093C235.209 390.773 245.15 386.673 254.5 382.982C274.615 375.043 278.773 373.024 289.941 365.775C306.084 355.297 320.062 338.62 330.823 317C339.29 299.988 342 285.712 342 258.112C342 233.833 339.588 222.817 330.554 205.835C324.184 193.861 316.267 182.995 306.738 173.15C291.52 157.428 279.783 150.163 254.109 140.576C230.965 131.933 223.092 127.614 213.904 118.519C202.313 107.045 198.011 96.696 195.767 74.888C192.991 47.897 202.261 26.787 222.921 13.053C226.687 10.549 230.051 8.49997 230.395 8.49997C230.74 8.49997 232.929 7.62597 235.261 6.55697C250.016 -0.207025 268.731 -1.66303 286.5 2.57097ZM252.5 192.838C264.047 196.607 272.32 201.831 282.13 211.549C289.413 218.763 291.486 221.59 295.413 229.663C300.918 240.979 302.146 248.615 300.934 264C299.244 285.451 293.843 298.673 282.145 310C272.703 319.142 263.628 323.537 229.5 335.495C190.284 349.235 169.516 366.556 154.506 398.041C146.622 414.579 144.368 423.292 141.537 448.186C139.824 463.242 139.241 465.436 134.449 474.871C124.78 493.909 106.121 508.818 87.3411 512.513C78.2731 514.297 51.9851 513.332 45.5001 510.977C24.7461 503.44 7.91006 484.107 2.00906 461.036C-0.46694 451.353 -0.703948 434.7 1.51005 425.96C3.89605 416.541 10.4661 404.191 16.6341 397.529C27.6751 385.603 37.6661 380.087 61.0001 373.037C95.2951 362.675 104.173 357.637 124.5 337.008C145.249 315.95 153.686 299.687 157.965 272.5C159.134 265.075 160.749 254.782 161.555 249.626C165.857 222.094 187.481 198.156 214.159 191.391C224.9 188.668 241.662 189.3 252.5 192.838Z" fill="white"/>
</svg>
