<svg width="24" height="24" viewBox="0 0 24 24" fill="none" xmlns="http://www.w3.org/2000/svg">
    <g clip-path="url(#clip0_73_8105)">
        <path fill-rule="evenodd" clip-rule="evenodd" d="M4.55678 2.48167C4.55557 2.47795 4.55439 2.47422 4.55326 2.47048L4.55678 2.48167ZM5.10763 4.17287L6.99932 9.97977C7.13343 10.3914 7.5172 10.67 7.95014 10.67H16.0501C16.4834 10.67 16.8673 10.3911 17.0012 9.97902L18.8869 4.17511L20.7791 9.99902L22.0034 13.6239L12.0001 20.8938L2.03572 13.6521L5.10763 4.17287ZM22.1475 13.6983L22.0668 13.5874C22.0778 13.573 22.0913 13.5605 22.1067 13.5506L22.1936 13.6849L22.1475 13.6983ZM22.1706 13.7302L22.6501 14.39L22.2136 13.7157L22.1706 13.7302ZM23.2204 15.2117L12.588 22.939C12.2375 23.1937 11.7628 23.1937 11.4122 22.939L0.762244 15.199L0.757682 15.1956C0.444936 14.9656 0.212952 14.6426 0.0949196 14.2728C-0.0227092 13.9042 -0.0211584 13.5079 0.099294 13.1404L3.75908 1.85102C3.76474 1.83362 3.77087 1.81638 3.77747 1.79931C3.85718 1.59319 3.98391 1.40852 4.14755 1.26001C4.41083 1.02036 4.75407 0.887512 5.11014 0.887512C5.46705 0.887512 5.81105 1.02097 6.07456 1.26167C6.08151 1.26802 6.08837 1.27446 6.09513 1.281C6.26571 1.44587 6.39221 1.65081 6.46317 1.87704L8.6761 8.67002H15.3236L17.5391 1.85102C17.5447 1.83362 17.5509 1.81638 17.5575 1.79931C17.6372 1.59318 17.7639 1.40852 17.9275 1.26001C18.1908 1.02036 18.5341 0.887512 18.8901 0.887512C19.247 0.887512 19.591 1.02097 19.8546 1.26167C19.8615 1.26802 19.8684 1.27446 19.8751 1.281C20.0458 1.44599 20.1724 1.6511 20.2433 1.87753L22.6794 9.37541L23.9476 13.13C23.9496 13.1359 23.9515 13.1419 23.9534 13.1479C23.9558 13.1554 23.9581 13.1629 23.9603 13.1704C24.0709 13.5504 24.0561 13.956 23.918 14.3269C23.7836 14.6878 23.5395 14.9972 23.2204 15.2117ZM17.9275 1.26001C17.9282 1.25946 17.9288 1.25891 17.9294 1.25836L18.6001 2.00002L17.9257 1.26167C17.9263 1.26112 17.9269 1.26057 17.9275 1.26001ZM19.2709 2.74168L19.2746 2.73837C19.2734 2.73948 19.2721 2.74058 19.2709 2.74168Z" fill="#0F0F0F"/>
    </g>
    <defs>
        <clipPath id="clip0_73_8105">
            <rect width="24" height="24" fill="white"/>
        </clipPath>
    </defs>
</svg>
